<svg width="40" height="40" viewBox="0 0 40 40" fill="none" xmlns="http://www.w3.org/2000/svg">
<path d="M12.77 23.6412C12.8257 22.1169 12.8867 20.5927 12.9357 19.0683C12.9668 18.1011 12.904 17.1468 12.5839 16.2174C12.0807 14.7573 11.0867 13.8181 9.62121 13.3831C8.8722 13.1608 8.10672 12.9934 7.34792 12.8041C6.84026 12.6772 6.35043 12.4996 5.87705 12.2792C3.59529 11.2175 3.16379 9.03145 3.789 7.1875C4.1457 6.13562 4.80609 5.26329 5.5885 4.51023C7.63158 2.5429 9.98325 1.1041 12.7753 0.427233C15.0615 -0.127182 17.342 -0.111589 19.6433 0.298979C20.8314 0.510946 21.9942 0.785705 23.1345 1.18827C24.678 1.73332 26.0063 2.62973 27.231 3.67086C28.6074 4.84118 29.1204 6.45005 29.1266 8.19432C29.136 10.7166 28.6524 13.1408 27.3793 15.3616C27.1196 15.814 26.8565 16.265 26.6129 16.7265C26.0465 17.8001 26.2362 18.3357 27.3329 18.8199C28.0183 19.1222 28.7575 19.2273 29.4754 19.4116C30.0578 19.5613 30.642 19.7046 31.2218 19.8632C33.8055 20.5695 35.3952 22.3017 36.2614 24.7705C36.9997 26.8755 36.9516 28.984 36.2681 31.0926C35.5863 33.1949 34.4267 35.0269 32.9243 36.6108C31.6235 37.9824 30.0093 38.9398 28.1711 39.4452C25.6016 40.1519 23.0117 40.2205 20.4493 39.4358C17.6666 38.584 15.5345 36.8512 13.9986 34.3941C13.2928 33.2652 13.0568 31.9752 12.8702 30.6775C12.6137 28.8985 12.7357 27.1111 12.7411 25.3263C12.7428 24.7642 12.7415 24.2023 12.7415 23.6403C12.7508 23.6412 12.7606 23.6412 12.77 23.6412ZM18.3996 29.4551C18.3942 31.2034 18.6449 32.2695 19.1068 33.2817C19.997 35.2321 22.0266 35.8213 23.5469 35.4709C24.2634 35.3056 24.8993 34.9805 25.5005 34.5677C27.0449 33.5065 27.9092 31.9662 28.5558 30.2688C28.9868 29.1367 29.1333 27.9776 28.9124 26.7793C28.6194 25.1891 27.9711 23.7984 26.6574 22.7862C25.9565 22.2461 25.1639 22.0323 24.283 22.1463C23.0856 22.3017 22.0601 22.8259 21.1925 23.6443C19.3628 25.3686 18.388 27.4785 18.3996 29.4551ZM18.7108 18.8844C20.0459 18.1883 21.2238 17.353 21.9932 16.0456C22.7133 14.8228 22.6675 13.5634 22.1148 12.2969C21.906 11.8182 21.5529 11.4499 21.067 11.2682C19.4545 10.6654 17.928 10.8048 16.5199 11.8548C16.2648 12.0453 16.19 12.2346 16.3854 12.5031C16.4443 12.5837 16.4932 12.6723 16.5378 12.7618C17.285 14.2688 18.0495 15.7664 18.3449 17.451C18.4263 17.9181 18.4918 18.3986 18.7108 18.8844Z" fill="white"/>
<path d="M9.71059 19.3163C10.5593 19.3163 11.2473 18.6282 11.2473 17.7795C11.2473 16.9308 10.5593 16.2427 9.71059 16.2427C8.86187 16.2427 8.17383 16.9308 8.17383 17.7795C8.17383 18.6282 8.86187 19.3163 9.71059 19.3163Z" fill="white"/>
</svg>
